# xmcd CD database file
#
# Track frame offsets:
#	150
#	24010
#	38494
#	61853
#	84575
#	101031
#	115599
#	129476
#	152179
#	166793
#	202875
#	246513
#	297877
#
# Disc length: 4311 seconds
#
# Revision: 0
# Processed by: cddbd v1.5PL3 Copyright (c) Steve Scherf et al.
# Submitted via: CDex 1.51
#
DISCID=9e10d50d
DTITLE=Bond, Graham - Solid Bond
DYEAR=1963
DGENRE=Jazz
TTITLE0=Green Onions
TTITLE1=Springtime In The City
TTITLE2=Can't Stand It
TTITLE3=Only Sixteen
TTITLE4=Last Night
TTITLE5=Long Legged Baby
TTITLE6=Walkin' In The Park
TTITLE7=It's Not Goodbye
TTITLE8=Neighbour Neighbour
TTITLE9=Ho Ho Country Kicking Blues
TTITLE10=The Grass Is Greener
TTITLE11=Doxy
TTITLE12=Early In The Morning
EXTD=YEAR: 1963
EXTT0=
EXTT1=
EXTT2=
EXTT3=
EXTT4=
EXTT5=
EXTT6=
EXTT7=
EXTT8=
EXTT9=
EXTT10=
EXTT11=
EXTT12=
PLAYORDER=
